<svg xmlns="http://www.w3.org/2000/svg" xmlns:xlink="http://www.w3.org/1999/xlink" width="40" zoomAndPan="magnify" viewBox="0 0 30 30.000001" height="40" preserveAspectRatio="xMidYMid meet" version="1.0"><defs><g/><clipPath id="3b7f7b6712"><path d="M 0.484375 0 L 29.515625 0 L 29.515625 29.03125 L 0.484375 29.03125 Z M 0.484375 0 " clip-rule="nonzero"/></clipPath><clipPath id="6233c77b3b"><path d="M 5 0 L 25 0 L 25 29.03125 L 5 29.03125 Z M 5 0 " clip-rule="nonzero"/></clipPath><clipPath id="5081c71064"><rect x="0" width="20" y="0" height="30"/></clipPath></defs><g clip-path="url(#3b7f7b6712)"><path fill="#ffffff" d="M 0.484375 0 L 29.515625 0 L 29.515625 29.03125 L 0.484375 29.03125 Z M 0.484375 0 " fill-opacity="1" fill-rule="nonzero"/><path fill="#ebe3d5" d="M 0.484375 0 L 29.515625 0 L 29.515625 29.03125 L 0.484375 29.03125 Z M 0.484375 0 " fill-opacity="1" fill-rule="nonzero"/></g><g clip-path="url(#6233c77b3b)"><g transform="matrix(1, 0, 0, 1, 5, 0.000000000000005692)"><g clip-path="url(#5081c71064)"><g fill="#000000" fill-opacity="1"><g transform="translate(0.892168, 22.310317)"><g><path d="M 1.316406 -1.722656 C 1.515625 -1.730469 1.675781 -1.75 1.796875 -1.789062 C 1.859375 -1.808594 1.902344 -1.828125 1.917969 -1.847656 C 2.007812 -1.9375 2.058594 -2.039062 2.070312 -2.15625 C 2.097656 -2.457031 2.113281 -3.011719 2.113281 -3.8125 L 2.113281 -14.371094 C 2.113281 -15.085938 2.140625 -15.703125 2.191406 -16.222656 L 3.105469 -16.132812 L 3.15625 -15.21875 L 0.425781 -15.066406 L 0.425781 -18.023438 L 7.109375 -18.050781 C 10.390625 -18.070312 13.011719 -17.285156 14.972656 -15.695312 C 16.992188 -14.0625 18.003906 -11.675781 18.003906 -8.53125 C 18.003906 -6.84375 17.605469 -5.277344 16.8125 -3.835938 C 16.011719 -2.378906 14.832031 -1.21875 13.277344 -0.359375 C 11.738281 0.492188 9.902344 0.917969 7.773438 0.917969 L 0.425781 0.917969 L 0.425781 -1.699219 Z M 1.371094 0.109375 L 1.34375 -0.804688 L 2.261719 -0.804688 L 2.261719 0 L 1.34375 0 L 1.34375 -0.917969 L 7.773438 -0.917969 C 9.585938 -0.917969 11.125 -1.265625 12.390625 -1.964844 C 13.636719 -2.652344 14.574219 -3.570312 15.207031 -4.71875 C 15.847656 -5.886719 16.167969 -7.15625 16.167969 -8.53125 C 16.167969 -11.089844 15.386719 -13.003906 13.820312 -14.269531 C 12.199219 -15.585938 9.964844 -16.234375 7.117188 -16.21875 L 1.347656 -16.195312 L 1.34375 -17.109375 L 2.261719 -17.109375 L 2.261719 -16.035156 L 1.34375 -16.035156 L 1.292969 -16.949219 L 4.125 -17.109375 L 4.015625 -16.042969 C 3.972656 -15.582031 3.949219 -15.027344 3.949219 -14.371094 L 3.949219 -3.8125 C 3.949219 -2.953125 3.929688 -2.339844 3.894531 -1.976562 C 3.839844 -1.425781 3.613281 -0.949219 3.214844 -0.550781 C 2.796875 -0.132812 2.183594 0.0859375 1.371094 0.109375 Z M 7.699219 -1.84375 C 8.890625 -1.84375 9.941406 -2.132812 10.851562 -2.707031 C 11.765625 -3.285156 12.480469 -4.082031 12.992188 -5.101562 C 13.511719 -6.148438 13.773438 -7.324219 13.773438 -8.628906 C 13.773438 -10.761719 13.207031 -12.410156 12.078125 -13.574219 C 10.953125 -14.734375 9.210938 -15.3125 6.84375 -15.3125 C 6.644531 -15.3125 6.480469 -15.296875 6.359375 -15.261719 C 6.296875 -15.246094 6.261719 -15.230469 6.246094 -15.21875 C 6.171875 -15.148438 6.128906 -15.058594 6.117188 -14.957031 C 6.089844 -14.652344 6.074219 -14.097656 6.074219 -13.296875 L 6.074219 -2.882812 C 6.074219 -2 6.046875 -1.332031 5.996094 -0.871094 L 5.085938 -0.976562 L 5.136719 -1.894531 C 5.691406 -1.863281 6.542969 -1.84375 7.699219 -1.84375 Z M 7.699219 -0.0117188 C 6.507812 -0.0117188 5.621094 -0.0273438 5.03125 -0.0625 L 4.0625 -0.117188 L 4.171875 -1.082031 C 4.21875 -1.472656 4.242188 -2.070312 4.242188 -2.882812 L 4.242188 -13.296875 C 4.242188 -14.15625 4.257812 -14.769531 4.292969 -15.132812 C 4.347656 -15.699219 4.582031 -16.171875 4.996094 -16.558594 C 5.417969 -16.949219 6.03125 -17.148438 6.84375 -17.148438 C 9.726562 -17.148438 11.910156 -16.382812 13.394531 -14.851562 C 14.871094 -13.328125 15.605469 -11.253906 15.605469 -8.628906 C 15.605469 -7.035156 15.28125 -5.585938 14.628906 -4.28125 C 13.96875 -2.957031 13.035156 -1.914062 11.832031 -1.15625 C 10.621094 -0.394531 9.246094 -0.0117188 7.699219 -0.0117188 Z M 7.699219 -0.0117188 "/></g></g></g><g fill="#ffffff" fill-opacity="1"><g transform="translate(0.892168, 22.310317)"><g><path d="M 1.34375 -0.8125 C 1.914062 -0.820312 2.320312 -0.945312 2.5625 -1.1875 C 2.8125 -1.4375 2.953125 -1.726562 2.984375 -2.0625 C 3.015625 -2.394531 3.03125 -2.976562 3.03125 -3.8125 L 3.03125 -14.375 C 3.03125 -15.050781 3.054688 -15.632812 3.109375 -16.125 L 1.34375 -16.03125 L 1.34375 -17.109375 L 7.109375 -17.125 C 10.171875 -17.144531 12.597656 -16.429688 14.390625 -14.984375 C 16.179688 -13.535156 17.078125 -11.382812 17.078125 -8.53125 C 17.078125 -7 16.71875 -5.582031 16 -4.28125 C 15.289062 -2.976562 14.234375 -1.9375 12.828125 -1.15625 C 11.429688 -0.382812 9.742188 0 7.765625 0 L 1.34375 0 Z M 7.703125 -0.921875 C 9.066406 -0.921875 10.273438 -1.253906 11.328125 -1.921875 C 12.390625 -2.597656 13.210938 -3.519531 13.796875 -4.6875 C 14.390625 -5.863281 14.6875 -7.175781 14.6875 -8.625 C 14.6875 -11 14.035156 -12.859375 12.734375 -14.203125 C 11.429688 -15.546875 9.46875 -16.21875 6.84375 -16.21875 C 6.269531 -16.21875 5.859375 -16.101562 5.609375 -15.875 C 5.367188 -15.65625 5.234375 -15.378906 5.203125 -15.046875 C 5.171875 -14.710938 5.15625 -14.128906 5.15625 -13.296875 L 5.15625 -2.890625 C 5.15625 -2.035156 5.128906 -1.398438 5.078125 -0.984375 C 5.648438 -0.941406 6.523438 -0.921875 7.703125 -0.921875 Z M 7.703125 -0.921875 "/></g></g></g></g></g></g></svg>